<?xml version="1.0" encoding="utf-8"?>
<!-- Generator: Adobe Illustrator 19.1.0, SVG Export Plug-In . SVG Version: 6.00 Build 0)  -->
<svg version="1.1" id="Layer_1" xmlns="http://www.w3.org/2000/svg" xmlns:xlink="http://www.w3.org/1999/xlink" x="0px" y="0px"
	 viewBox="-220 229.4 69.7 55.6" style="enable-background:new -220 229.4 69.7 55.6;" xml:space="preserve">
<g>
	<path d="M-197.1,249.7c-1.2,0-2.8-0.8-2.8-1.5c0-0.2,0.1-0.3,0.3-0.4c3.9-2,8.2-7.9,8.2-11.6c0-1.9-1.1-3.2-4-3.2
		c-8.2,0-16,7.2-16,13.1c0.1,7.5,13.4,9.3,13.4,16.1c0,4.5-4.8,8.7-11.7,8.7c-2.7,0-5.5-0.7-7.8-2.2c-0.3-0.2-0.5-0.6-0.5-1.1
		c0-0.8,0.4-1.6,1.1-1.6c0.3,0,0.3,0.1,1.5,0.6c1.2,0.5,3.5,1.1,5.7,1.1c3.4,0,5.9-1.3,5.9-3.5c0-4.5-12.7-6.4-12.7-15.5
		c0.1-9.9,12.3-19.3,24.1-19.3c5.5,0,7.6,2.1,7.6,5.1c0,4.8-5.6,11.6-11.6,15C-196.6,249.6-196.8,249.7-197.1,249.7z"/>
	<g>
		<path d="M-167,258.1c0.5,0,0.9,1.1,0.9,1.6c0,1-0.2,1.3-0.9,1.8c-7.3,5.3-13.9,9-17.7,9c-1.2,0-1.7-0.7-1.7-1.6
			c0-1.2,0.7-2.8,1.5-4.1c-4,4.2-7.6,6-10.3,6c-2.9,0-3.2-1.2-3.2-2.9c0-1.8,1.8-5.8,5-11.2c0.4-0.8,1.4-1.1,2.4-1.1
			c1.6,0,3.4,0.8,3.4,1.7c0,0.2,0,0.3-0.2,0.7c-0.7,1.5-3.1,6.2-4.4,8.9c4.3-1.6,8.8-6.7,10.6-10.3c0.3-0.7,1.1-1.1,2.1-1.1
			c1.7,0,3.3,0.3,3.3,1.3c0,0.2-0.1,0.3-0.1,0.5c-1.2,2.6-2.8,5.8-3.9,8.9C-174.1,264-167.5,258.1-167,258.1z"/>
		<path d="M-163.2,259.2c2.2-1.9,4.7-3.4,7-3.4c2.5,0,3.9,1.1,3.9,3.5c0,4.9-7.8,11.5-11.2,11.5c-1.5,0-2.1-1-2.1-1.8
			c0-1.5,2.1-2.4,4.4-2.4c2.4-1.9,3.3-3.8,3.3-5c0-1-0.6-1.6-1.4-1.6c-2.1,0-5.5,3.1-6.7,5.4l-2,3.7c-2.1,4-4.9,11.1-7.3,15.4
			c-0.2,0.4-0.6,0.6-1,0.6c-1.1,0-2.5-1.6-2.5-3c0-0.2,0.1-0.4,0.1-0.6c1.7-4.9,9-20.7,12.1-26.9c0.4-0.9,1.3-1.2,2.4-1.2
			c1.5,0,3,0.8,3,1.6c0,0.1-0.1,0.2-0.1,0.3C-161.9,256.4-162.5,257.7-163.2,259.2z"/>
	</g>
</g>
</svg>
