<?xml version="1.0" encoding="utf-8"?>
<!-- Generator: Adobe Illustrator 19.1.0, SVG Export Plug-In . SVG Version: 6.00 Build 0)  -->
<svg version="1.1" id="Layer_1" xmlns="http://www.w3.org/2000/svg" xmlns:xlink="http://www.w3.org/1999/xlink" x="0px" y="0px"
	 viewBox="-190 212.6 130.7 88.4" style="enable-background:new -190 212.6 130.7 88.4;" xml:space="preserve">
<g>
	<path d="M-176.3,264.9c-1.1-0.8-2.5-1.1-4.5-1.1c-5.5,0-9,4.9-9,9.9c0,6.6,5.6,13.8,18.5,13.8c13.3,0,17.5-9.7,17.5-18.2
		c0-8-2.2-16-3.5-23.7c-2.4,0.6-5.1,1-8,1c-10.2,0-13.6-5.7-13.6-10.9c0-4.3,3.5-7.9,7.2-7.9c2.1,0,4.3,0.9,5.3,3.2h-0.1
		c-1.1-2.2-3.2-3.1-5.3-3.1c-3.8,0-7,3.7-7,7.7c0,5,3.3,10.6,13.4,10.6c2.8,0,5.5-0.4,8-1c-0.5-3.1-0.8-6-0.8-8.9
		c0-13.9,12-23.5,17-23.5c3,0,5.3,2.2,5.3,6.7c0,6.6-4.1,15.8-12.2,21.6c1.4,5.6,3.3,11.9,3.3,20.7c0,11.3-8.6,25.8-26.4,25.8
		c-13.4,0-19-7.3-19-14c0.2-5.3,3.8-10,9.4-10C-178.8,263.6-177.4,264-176.3,264.9L-176.3,264.9z M-148,240.9
		c8-5.6,12.1-14.6,12.1-21.3c0-4.2-2.1-6.5-4.6-6.5c-3.8,0-8.8,5.5-8.8,18.6C-149.3,234.8-148.8,237.8-148,240.9z"/>
	<path d="M-131.7,245.5c0-2.6-1-3-2.3-3c-1.8,0-6.3,2.9-6.9,10.3h-0.1c0.6-7.7,5.4-11.3,10-11.3c3.8,0,7.4,2.1,7.4,7
		c0,5.3-5,19-5,25.7c0,3.3,1.5,4.5,3.4,4.5c2.7,0,6.3-2.3,8.2-4.5c0-0.3,0-0.7,0-1.1c0-3.7,4.8-24.3,6.1-30.2
		c1.6,0.8,2.7,1.3,4.3,1.3c1.3,0,3.5-0.4,5.1-1.2l0.6-2.5h0.1c-1.3,6.9-7.5,31.3-7.5,36.5c0,1.8,1.2,2.5,2.8,2.5
		c2.6,0,6.7-3.3,7.2-10.3l0.1-0.1c-0.8,7.8-4.9,11.4-11.4,11.4c-3.6,0-6.9-2-7.4-6.1c-2.7,3.4-8.7,6.1-13.6,6.1
		c-4.2,0-7.5-1.9-7.5-7C-138.1,268.6-131.7,249.8-131.7,245.5z"/>
	<path d="M-87.9,274.5c-2.4,9.9-4.8,18.7-4.8,21.6c0,2.6,0.8,3.7,2.1,3.7c2.6,0,6.7-4.7,6.9-10.3l0.1-0.1c-0.8,7.8-5.6,11.4-10,11.4
		c-3.8,0-7.4-2.8-7.4-7.7c0-6.7,9.8-40.2,9.8-46.9c0-1.9-0.8-2.8-2.1-2.8c-2.2,0-5.5,2-6.2,3.5h-0.1c1.6-2.4,5.9-4.3,9.9-4.3
		c3.5,0,7.2,1.3,7.7,5.2c2.9-3.3,6.2-5.3,10.6-5.3c8.8,0,12.3,6.2,12.3,13.6c0,11.3-8.1,24.4-20.2,24.4
		C-83.2,280.3-87,277.9-87.9,274.5z M-87.8,274.3c0.8,3,2.9,4.7,5.3,4.7c8.2,0,14.2-15.5,14.2-26.2c0-5.6-1.7-9.9-5.6-9.9
		c-1.9,0-5.5,1.4-8.3,5v0.6C-82.5,253.9-85.1,263.4-87.8,274.3z"/>
</g>
</svg>
